<svg xmlns="http://www.w3.org/2000/svg" viewBox="0 0 128 128"><defs><style>.a{fill:#4a5057;}</style></defs><title>logo-grey</title><path class="a" d="M11.79,60.31a44.27,44.27,0,0,1,15.58-2.65,50,50,0,0,1,7,.58q4,.58,7.74,1.33l6.68,1.32a28.8,28.8,0,0,0,3.39.58,4.24,4.24,0,0,0,1.17-.11q0,2.12-.11,4.08t-.11,4.08q0,4.45.32,8.85t.85,8.85H51.65a32.67,32.67,0,0,0-8.48-17.33,26.47,26.47,0,0,0-7.47-5.51,20.2,20.2,0,0,0-9.06-2.07,19.05,19.05,0,0,0-10.71,2.86,22.5,22.5,0,0,0-7,7.26,30.92,30.92,0,0,0-3.76,9.81,52,52,0,0,0-1.11,10.5,39.17,39.17,0,0,0,1.8,12.14,27.77,27.77,0,0,0,5.3,9.65,23.82,23.82,0,0,0,8.75,6.36,30.5,30.5,0,0,0,12.24,2.28,26.34,26.34,0,0,0,9.06-1.48,29.88,29.88,0,0,0,7.32-3.82,32.43,32.43,0,0,0,5.72-5.25,61.29,61.29,0,0,0,4.4-5.78l2.54,2.65a44.73,44.73,0,0,1-14.95,15.8,34.87,34.87,0,0,1-5.4,2.7H86.43L66.49,72.4q-.74-2.23-1.59-4.14a13.75,13.75,0,0,0-2.07-3.34,9,9,0,0,0-3-2.28,11.12,11.12,0,0,0-4.4-1V59.15l6.94.42q3.44.21,6.94.21,8.59,0,17.17-.64v2.54q-1.38,0-2.7.11a6.9,6.9,0,0,0-2.44.64,4.14,4.14,0,0,0-2.49,4.24,18.8,18.8,0,0,0,.8,2.7q.8,2.39,2.12,6.1t3,8.38q1.69,4.67,3.44,9.54L91.73,103q1.69,4.72,3,8.64h.21L106.36,82q-2.33-6.57-4-10.39a31.78,31.78,0,0,0-3.23-5.88,8.9,8.9,0,0,0-3.23-2.86,16.44,16.44,0,0,0-4.13-1.22V59.15q7.84.64,15.48.64,4.45,0,9-.21l9-.42v2.54l-3,.27a13,13,0,0,0-3.18.69,7.12,7.12,0,0,0-2.54,1.54A3.69,3.69,0,0,0,115.37,67a19.24,19.24,0,0,0,1,4q1,3.13,2.44,7.53t3.34,9.44l3.6,9.81c.8,2.18,1.56,4.21,2.3,6.11V0H0V67.38A36.1,36.1,0,0,1,11.79,60.31Z"/><path class="a" d="M0,121.61V128H10.22A33.89,33.89,0,0,1,0,121.61Z"/><path class="a" d="M99.52,108.55q-4.17,9.59-8.3,19.45h32L108.26,86.92Q104.13,97.95,99.52,108.55Z"/></svg>