<svg width="512" height="512" viewBox="0 0 512 512" fill="none" xmlns="http://www.w3.org/2000/svg">
	<style>
		@media (prefers-color-scheme: light) {
			.icon-fg { fill: #010101; };
			.icon-stroke-fg { stroke: #010101; };
		}
	</style>
    <path class="icon-fg" d="M201.03 400.356L151.18 131.612H213.39L231.929 257.328C233.577 271.342 235.362 285.494 237.285 299.783C239.207 313.797 240.993 327.949 242.64 342.238H244.288C247.035 327.949 249.644 313.797 252.116 299.783C254.863 285.494 257.609 271.342 260.356 257.328L289.195 131.612H340.693L369.532 257.328C372.278 270.793 374.888 284.67 377.36 298.959C380.106 313.248 382.853 327.674 385.599 342.238H387.247C389.17 327.674 390.955 313.385 392.603 299.371C394.526 285.082 396.448 271.068 398.371 257.328L416.91 131.612H475L427.21 400.356H350.993L324.625 278.35C322.428 267.908 320.368 257.466 318.446 247.024C316.798 236.307 315.287 226.002 313.914 216.11H312.266C310.618 226.002 308.833 236.307 306.91 247.024C305.262 257.466 303.34 267.908 301.142 278.35L276.011 400.356H201.03Z" fill="#F3F5F4" />
    <path class="icon-fg" d="M218.288 474C183.254 474 151.851 465.451 124.08 448.353C96.7367 430.827 74.9473 405.822 58.712 373.335C42.904 340.849 35 301.737 35 256C35 210.69 43.1176 171.792 59.3529 139.306C75.5882 106.82 97.8048 81.8137 126.003 64.2882C154.201 46.7627 186.031 38 221.492 38C247.127 38 269.77 43.3431 289.424 54.0294C309.077 64.2883 324.885 76.2569 336.848 89.9353L308.009 124.559C296.9 112.59 284.297 102.973 270.198 95.7059C256.099 88.4392 240.077 84.8059 222.133 84.8059C195.644 84.8059 172.359 91.8588 152.278 105.965C132.625 119.643 117.244 139.092 106.136 164.312C95.455 189.531 90.1144 219.667 90.1144 254.718C90.1144 289.769 95.455 320.331 106.136 346.406C116.817 372.053 131.771 391.929 150.997 406.035C170.65 420.141 193.721 427.194 220.21 427.194C240.291 427.194 258.235 422.92 274.043 414.371C289.851 405.822 304.377 394.28 317.622 379.747L347.102 413.088C330.439 432.324 311.64 447.284 290.705 457.971C269.77 468.657 245.631 474 218.288 474Z" fill="#F3F5F4" />
    <rect class="icon-stroke-fg" x="14.5" y="14.5" width="483" height="483" rx="36.5" stroke="#F3F5F4" stroke-width="27" stroke-linejoin="round" />
</svg>