<svg width="512" height="512" viewBox="0 0 512 512" fill="none" xmlns="http://www.w3.org/2000/svg">
<path d="M197.369 412.938L143.213 120.771H210.796L230.936 257.444C232.727 272.68 234.666 288.065 236.755 303.599C238.843 318.835 240.783 334.22 242.573 349.754H244.363C247.347 334.22 250.182 318.835 252.867 303.599C255.851 288.065 258.835 272.68 261.818 257.444L293.148 120.771H349.094L380.423 257.444C383.407 272.082 386.242 287.168 388.927 302.703C391.911 318.237 394.895 333.921 397.878 349.754H399.669C401.757 333.921 403.697 318.387 405.487 303.151C407.576 287.617 409.664 272.381 411.753 257.444L431.893 120.771H495L443.082 412.938H360.283L331.639 280.297C329.252 268.945 327.014 257.593 324.925 246.241C323.135 234.59 321.494 223.388 320.002 212.633H318.212C316.421 223.388 314.482 234.59 312.393 246.241C310.603 257.593 308.514 268.945 306.127 280.297L278.826 412.938H197.369Z" fill="#F3F5F4"/>
<path d="M216.117 493C178.057 493 143.943 483.706 113.774 465.118C84.0685 446.065 60.3973 418.879 42.7599 383.562C25.5866 348.244 17 305.724 17 256C17 206.741 25.8187 164.453 43.4561 129.135C61.0935 93.8176 85.2289 66.6324 115.862 47.5794C146.496 28.5265 181.074 19 219.598 19C247.447 19 272.046 24.8088 293.397 36.4265C314.747 47.5794 331.92 60.5912 344.916 75.4618L313.587 113.103C301.519 100.091 287.827 89.6353 272.51 81.7353C257.194 73.8353 239.788 69.8853 220.294 69.8853C191.517 69.8853 166.222 77.5529 144.407 92.8882C123.056 107.759 106.347 128.903 94.2797 156.321C82.6761 183.738 76.8743 216.5 76.8743 254.606C76.8743 292.712 82.6761 325.938 94.2797 354.285C105.883 382.168 122.128 403.776 143.015 419.112C164.365 434.447 189.429 442.115 218.206 442.115C240.02 442.115 259.514 437.468 276.687 428.174C293.861 418.879 309.642 406.332 324.03 390.532L356.056 426.779C337.954 447.691 317.532 463.956 294.789 475.574C272.046 487.191 245.822 493 216.117 493Z" fill="#F3F5F4"/>
</svg>
